<svg width="1200" height="1200" xmlns="http://www.w3.org/2000/svg" xmlns:xlink="http://www.w3.org/1999/xlink" version="1.1"><g transform="scale(16.884434913236596) translate(-43.33111678229438, -19.3153010474311)">                        <g fill="#5782bb"><g xmlns="http://www.w3.org/2000/svg"><path d="M78.83 29.63q10.51-.01 18.58 6.45 12.87 10.31 10.81 28.61a1.16 1.15-61.3 0 0 .25.87q3.49 4.38 1.86 8.89c-2.69 7.44-13.89 7.33-15.94-.64-.92-3.56.52-6.16 2.74-9.03a1.72 1.7-24.1 0 0 .36-.93c.91-11.67-6.16-22.48-18.65-22.47S59.3 52.22 60.23 63.89a1.72 1.7 24 0 0 .36.93c2.23 2.86 3.67 5.46 2.76 9.02-2.04 7.97-13.24 8.11-15.94.67q-1.64-4.51 1.84-8.89a1.16 1.15 61.2 0 0 .25-.87q-2.1-18.3 10.75-28.63 8.06-6.48 18.58-6.49m-23.16 33.3c-.69-16.18 11.94-28.67 28.4-25.23 11.69 2.45 18.55 14.22 17.47 25.41a.63.63 0 0 0 .78.67l1.49-.37a.58.58 0 0 0 .44-.51c2.65-27.18-30.98-39.57-46.55-17.49q-4.72 6.69-4.02 17.29a1.13 1.12-88.5 0 0 .99 1.05l.11.01a.8.8 0 0 0 .89-.83m3.4 8.76a3.85 3.85 0 0 0-3.85-3.85 3.85 3.85 0 0 0-3.85 3.85 3.85 3.85 0 0 0 3.85 3.85 3.85 3.85 0 0 0 3.85-3.85m47.21-.03a3.86 3.86 0 0 0-3.86-3.86 3.86 3.86 0 0 0-3.86 3.86 3.86 3.86 0 0 0 3.86 3.86 3.86 3.86 0 0 0 3.86-3.86"/><path d="M77.67 44.92c3.66-.14 7.96 1.41 10.21 4.52q.84 1.16-.41 2.51a1.92 1.92 0 0 1-2.47.3c-1.82-1.21-3.75-3.44-7.18-3.31s-5.19 2.5-6.91 3.84a1.92 1.92 0 0 1-2.49-.11q-1.35-1.25-.6-2.48c2.01-3.27 6.19-5.13 9.85-5.27"/><path d="M78.4 50.27q.62-.01 1.29.56 5.16 4.39 6.96 5.98c9.09 8 5.1 23.05-7.77 23.26-12.88.2-17.35-14.71-8.52-23q1.75-1.65 6.77-6.2.65-.59 1.27-.6m.1 11.14q.02 0 .16-.05 2.44-.86 3.82-1.6a.42.42 0 0 0 .07-.69q-1.9-1.65-3.73-3.07-.02-.02-.15-.03-.08-.01-.12-.01h-.13q-.13.02-.15.04-1.85 1.39-3.78 3.01a.42.42 0 0 0 .06.69q1.37.76 3.8 1.66.13.05.15.05m.06 5.65q.11 0 .2-.03 4.92-1.73 7.17-2.35a.58.58 0 0 0 .34-.85l-.89-1.55a1 .99-30.2 0 0-1.37-.36c-1.2.71-3.79 2.16-5.44 2.16-1.65-.01-4.23-1.47-5.43-2.19a1 .99 30.5 0 0-1.37.36l-.89 1.54a.58.58 0 0 0 .33.85q2.25.63 7.16 2.39.09.03.19.03m-8.03.05a.41.41 0 0 0-.52.4q.03 1.47.48 2.5a.68.67-26.1 0 0 .94.32l3.01-1.61a.28.27 38.8 0 0-.06-.51zm16.24-.01-4.06 1.02a.29.29 0 0 0-.08.53l3.09 1.78a.71.7 27.9 0 0 .99-.3q.51-1.06.59-2.59a.43.42-5 0 0-.53-.44m-8.15 8.48q3.14-.01 6.23-2.38a.42.41 37.9 0 0-.09-.71q-1.92-.85-5.97-2.37-.04-.01-.19-.01-.16 0-.2.01-4.04 1.56-5.95 2.43a.42.41-38.4 0 0-.08.71q3.11 2.34 6.25 2.32"/></g></g>        </g></svg>